<?xml version="1.0" encoding="UTF-8"?>
<svg xmlns="http://www.w3.org/2000/svg" xmlns:xlink="http://www.w3.org/1999/xlink" width="989px" height="566px" viewBox="0 0 989 566">
<!-- Generator: Sketch 51.3 (57544) - http://www.bohemiancoding.com/sketch -->
<title>artwork-purple-1</title><desc>Created with Sketch.</desc><defs><path d="M69.9894365,0.505415422 C131.277667,33.6474638 195.432798,78.1377602 231.996665,87.3726976 C353.207114,117.986826 433.712871,115.048406 433.712871,185.151127 C433.712871,285.80217 270.656066,224.162368 53.1340187,366.865209 C-6.77954745,271.048155 -31.5636768,122.990715 62.9711845,8.6853843 C65.2733825,5.90171799 67.6132675,3.17530948 69.9894749,0.505436158 Z" id="path-1"></path></defs><g id="artwork-purple-1" stroke="none" stroke-width="1" fill="none" fill-rule="evenodd"><g id="Group-3" transform="translate(691.000000, 212.500000) rotate(-360.000000) translate(-691.000000, -212.500000) translate(0.000000, -141.000000)"><path d="M393.836358,250.279924 C560.670779,48.166941 909.096976,170.915719 968.782987,272.160883 C1028.469,373.406048 956.181528,482.038878 742.026554,513.969425 C622.908404,531.729963 640.714558,648.282819 545.411198,699.139835 C431.718949,759.809768 227.001938,452.392908 393.836358,250.279924 Z" id="Oval-16-Copy" fill="#00f29c" fill-rule="nonzero"></path><g id="Group" transform="translate(65.000000, 0.000000)"></g><path d="M382.426934,610.590858 C600.886809,466.425735 764.82235,528.665732 764.82235,427.605967 C764.82235,357.369388 684.22921,360.313418 562.887196,329.640833 C509.636489,316.180229 397.927373,227.96159 321.641614,208.750321 C110.796448,155.65256 0.0315186246,252.51089 0.0315186246,353.570655 C0.0315186246,454.63042 163.967059,754.755982 382.426934,610.590858 Z" id="Oval-16" fill="#F6F6F6" fill-rule="nonzero"></path><g id="Group-2" transform="translate(330.853868, 241.512894)"><mask id="mask-2" fill="white"><use xlink:href="#path-1"></use></mask><g id="Combined-Shape" fill-rule="nonzero"></g><path d="M157.488562,-145.731018 L159.288339,-143.933641 L-416.253579,430.840541 L-418.053356,429.043164 L157.488562,-145.731018 Z M170.21491,-145.731018 L172.014688,-143.933641 L-403.52723,430.840541 L-405.327008,429.043164 L170.21491,-145.731018 Z M182.941259,-145.731018 L184.741036,-143.933641 L-390.800882,430.840541 L-392.600659,429.043164 L182.941259,-145.731018 Z M195.667607,-145.731018 L197.467385,-143.933641 L-378.074534,430.840541 L-379.874311,429.043164 L195.667607,-145.731018 Z M208.393955,-145.731018 L210.193733,-143.933641 L-365.348185,430.840541 L-367.147963,429.043164 L208.393955,-145.731018 Z M221.120304,-145.731018 L222.920081,-143.933641 L-352.621837,430.840541 L-354.421614,429.043164 L221.120304,-145.731018 Z M233.846652,-145.731018 L235.64643,-143.933641 L-339.895488,430.840541 L-341.695266,429.043164 L233.846652,-145.731018 Z M246.573001,-145.731018 L248.372778,-143.933641 L-327.16914,430.840541 L-328.968917,429.043164 L246.573001,-145.731018 Z M259.299349,-145.731018 L261.099127,-143.933641 L-314.442791,430.840541 L-316.242569,429.043164 L259.299349,-145.731018 Z M272.025698,-145.731018 L273.825475,-143.933641 L-301.716443,430.840541 L-303.51622,429.043164 L272.025698,-145.731018 Z M284.752046,-145.731018 L286.551824,-143.933641 L-288.990095,430.840541 L-290.789872,429.043164 L284.752046,-145.731018 Z M297.478394,-145.731018 L299.278172,-143.933641 L-276.263746,430.840541 L-278.063524,429.043164 L297.478394,-145.731018 Z M310.204743,-145.731018 L312.00452,-143.933641 L-263.537398,430.840541 L-265.337175,429.043164 L310.204743,-145.731018 Z M322.931091,-145.731018 L324.730869,-143.933641 L-250.811049,430.840541 L-252.610827,429.043164 L322.931091,-145.731018 Z M335.65744,-145.731018 L337.457217,-143.933641 L-238.084701,430.840541 L-239.884478,429.043164 L335.65744,-145.731018 Z M348.383788,-145.731018 L350.183566,-143.933641 L-225.358352,430.840541 L-227.15813,429.043164 L348.383788,-145.731018 Z M361.110137,-145.731018 L362.909914,-143.933641 L-212.632004,430.840541 L-214.431781,429.043164 L361.110137,-145.731018 Z M373.836485,-145.731018 L375.636263,-143.933641 L-199.905656,430.840541 L-201.705433,429.043164 L373.836485,-145.731018 Z M386.562833,-145.731018 L388.362611,-143.933641 L-187.179307,430.840541 L-188.979085,429.043164 L386.562833,-145.731018 Z M399.289182,-145.731018 L401.088959,-143.933641 L-174.452959,430.840541 L-176.252736,429.043164 L399.289182,-145.731018 Z M412.01553,-145.731018 L413.815308,-143.933641 L-161.72661,430.840541 L-163.526388,429.043164 L412.01553,-145.731018 Z M424.741879,-145.731018 L426.541656,-143.933641 L-149.000262,430.840541 L-150.800039,429.043164 L424.741879,-145.731018 Z M437.468227,-145.731018 L439.268005,-143.933641 L-136.273913,430.840541 L-138.073691,429.043164 L437.468227,-145.731018 Z M450.194576,-145.731018 L451.994353,-143.933641 L-123.547565,430.840541 L-125.347342,429.043164 L450.194576,-145.731018 Z M462.920924,-145.731018 L464.720702,-143.933641 L-110.821217,430.840541 L-112.620994,429.043164 L462.920924,-145.731018 Z M475.647272,-145.731018 L477.44705,-143.933641 L-98.0948681,430.840541 L-99.8946456,429.043164 L475.647272,-145.731018 Z M488.373621,-145.731018 L490.173398,-143.933641 L-85.3685197,430.840541 L-87.1682972,429.043164 L488.373621,-145.731018 Z M501.099969,-145.731018 L502.899747,-143.933641 L-72.6421713,430.840541 L-74.4419487,429.043164 L501.099969,-145.731018 Z M513.826318,-145.731018 L515.626095,-143.933641 L-59.9158228,430.840541 L-61.7156003,429.043164 L513.826318,-145.731018 Z M526.552666,-145.731018 L528.352444,-143.933641 L-47.1894744,430.840541 L-48.9892519,429.043164 L526.552666,-145.731018 Z M539.279015,-145.731018 L541.078792,-143.933641 L-34.463126,430.840541 L-36.2629034,429.043164 L539.279015,-145.731018 Z M552.005363,-145.731018 L553.80514,-143.933641 L-21.7367776,430.840541 L-23.536555,429.043164 L552.005363,-145.731018 Z M564.731711,-145.731018 L566.531489,-143.933641 L-9.01042914,430.840541 L-10.8102066,429.043164 L564.731711,-145.731018 Z M577.45806,-145.731018 L579.257837,-143.933641 L3.71591929,430.840541 L1.91614183,429.043164 L577.45806,-145.731018 Z M590.184408,-145.731018 L591.984186,-143.933641 L16.4422677,430.840541 L14.6424903,429.043164 L590.184408,-145.731018 Z M602.910757,-145.731018 L604.710534,-143.933641 L29.1686161,430.840541 L27.3688387,429.043164 L602.910757,-145.731018 Z M615.637105,-145.731018 L617.436883,-143.933641 L41.8949646,430.840541 L40.0951871,429.043164 L615.637105,-145.731018 Z M628.363454,-145.731018 L630.163231,-143.933641 L54.621313,430.840541 L52.8215355,429.043164 L628.363454,-145.731018 Z M641.089802,-145.731018 L642.889579,-143.933641 L67.3476614,430.840541 L65.547884,429.043164 L641.089802,-145.731018 Z M653.81615,-145.731018 L655.615928,-143.933641 L80.0740099,430.840541 L78.2742324,429.043164 L653.81615,-145.731018 Z M666.542499,-145.731018 L668.342276,-143.933641 L92.8003583,430.840541 L91.0005808,429.043164 L666.542499,-145.731018 Z M679.268847,-145.731018 L681.068625,-143.933641 L105.526707,430.840541 L103.726929,429.043164 L679.268847,-145.731018 Z M691.995196,-145.731018 L693.794973,-143.933641 L118.253055,430.840541 L116.453278,429.043164 L691.995196,-145.731018 Z M704.721544,-145.731018 L706.521322,-143.933641 L130.979404,430.840541 L129.179626,429.043164 L704.721544,-145.731018 Z M717.447893,-145.731018 L719.24767,-143.933641 L143.705752,430.840541 L141.905975,429.043164 L717.447893,-145.731018 Z M730.174241,-145.731018 L731.974018,-143.933641 L156.4321,430.840541 L154.632323,429.043164 L730.174241,-145.731018 Z M742.900589,-145.731018 L744.700367,-143.933641 L169.158449,430.840541 L167.358671,429.043164 L742.900589,-145.731018 Z M755.626938,-145.731018 L757.426715,-143.933641 L181.884797,430.840541 L180.08502,429.043164 L755.626938,-145.731018 Z M768.353286,-145.731018 L770.153064,-143.933641 L194.611146,430.840541 L192.811368,429.043164 L768.353286,-145.731018 Z M781.079635,-145.731018 L782.879412,-143.933641 L207.337494,430.840541 L205.537717,429.043164 L781.079635,-145.731018 Z M793.805983,-145.731018 L795.605761,-143.933641 L220.063843,430.840541 L218.264065,429.043164 L793.805983,-145.731018 Z M806.532332,-145.731018 L808.332109,-143.933641 L232.790191,430.840541 L230.990414,429.043164 L806.532332,-145.731018 Z M819.25868,-145.731018 L821.058457,-143.933641 L245.516539,430.840541 L243.716762,429.043164 L819.25868,-145.731018 Z M831.985028,-145.731018 L833.784806,-143.933641 L258.242888,430.840541 L256.44311,429.043164 L831.985028,-145.731018 Z M844.711377,-145.731018 L846.511154,-143.933641 L270.969236,430.840541 L269.169459,429.043164 L844.711377,-145.731018 Z M857.437725,-145.731018 L859.237503,-143.933641 L283.695585,430.840541 L281.895807,429.043164 L857.437725,-145.731018 Z M870.164074,-145.731018 L871.963851,-143.933641 L296.421933,430.840541 L294.622156,429.043164 L870.164074,-145.731018 Z M882.890422,-145.731018 L884.6902,-143.933641 L309.148282,430.840541 L307.348504,429.043164 L882.890422,-145.731018 Z M895.616771,-145.731018 L897.416548,-143.933641 L321.87463,430.840541 L320.074853,429.043164 L895.616771,-145.731018 Z" id="Combined-Shape" fill="#E3E3E3" fill-rule="nonzero" mask="url(#mask-2)"></path></g></g></g></svg> 