<svg width="800" height="600" xmlns="http://www.w3.org/2000/svg">
 <g id="Layer_1" stroke="null">
  <title>Layer 1</title>
  <path stroke="#000" fill="#000000" d="m0.30529,658.20057l151.26736,-257.57201l151.26736,257.57201l-302.53472,0z" id="svg_13"/>
  <path stroke="null" fill="#7f7f7f" d="m134.62906,658.20057l112.08559,-190.85483l112.08558,190.85483l-224.17116,0z" id="svg_18"/>
  <path stroke="#d6d6d6" fill="#d6d6d6" d="m0.30529,658.20057l151.26737,-257.57201l151.26735,257.57201l-302.53472,0z" id="svg_14"/>
  <path stroke="null" fill="#7f7f7f" d="m443.7813,654.20057l112.08559,-190.85483l112.08558,190.85483l-224.17116,0z" id="svg_19"/>
  <path stroke="#d6d6d6" fill="#d6d6d6" d="m491.44483,658.20057l151.26737,-257.57201l151.26735,257.57201l-302.53472,0z" id="svg_15"/>
  <path stroke="#null" fill="#2ec272" d="m234.04355,499.38505l12.84648,-23.12367l12.84648,23.12367l-12.84648,23.12367l-12.84648,-23.12367z" id="svg_20"/>
  <path stroke="#null" fill="#2ec272" d="m543.9778,498.23054l12.84648,-23.12367l12.84648,23.12367l-12.84648,23.12368l-12.84648,-23.12368z" id="svg_22"/>
  <path stroke="#d6d6d6" fill="#d6d6d6" d="m188.94044,676.9871l212.75511,-362.27087l212.7551,362.27087l-425.51021,0l0,0z" id="svg_16"/>
 </g>


</svg>