<?xml version="1.0" standalone="no"?>
<!DOCTYPE svg PUBLIC "-//W3C//DTD SVG 20010904//EN"
 "http://www.w3.org/TR/2001/REC-SVG-20010904/DTD/svg10.dtd">
<svg version="1.0" xmlns="http://www.w3.org/2000/svg"
 width="1000pt" height="400pt" viewBox="0 0 1448.000000 896.000000"
 preserveAspectRatio="xMidYMid meet">
<metadata>
Created by potrace 1.16, written by Peter Selinger 2001-2019
</metadata>
<g transform="translate(0.000000,896.000000) scale(0.100000,-0.100000)"
fill="#d6d6d6" stroke="none">
<path d="M7731 8942 c-5 -10 -17 -56 -26 -103 -9 -46 -27 -140 -40 -209 -32
-163 -49 -277 -80 -550 -30 -270 -64 -481 -110 -690 -19 -85 -46 -225 -60
-310 -14 -85 -34 -186 -45 -225 -10 -38 -26 -110 -35 -160 -28 -159 -100 -415
-116 -415 -9 0 -26 88 -39 195 -5 44 -14 103 -20 130 -6 28 -15 205 -20 395
-17 604 -34 910 -50 910 -13 0 -19 -69 -30 -320 -13 -311 -28 -572 -41 -695
-6 -55 -17 -160 -24 -234 -8 -73 -18 -138 -24 -144 -6 -6 -15 3 -25 28 -24 57
-86 256 -86 275 0 23 -38 70 -56 70 -18 0 -24 -16 -80 -211 -25 -87 -67 -211
-93 -276 -76 -189 -111 -348 -111 -508 0 -38 -7 -137 -16 -220 -10 -100 -17
-296 -20 -593 -4 -427 -5 -445 -25 -485 -12 -23 -23 -43 -24 -45 -5 -6 -45 23
-45 32 0 11 -44 123 -70 181 -10 22 -26 81 -35 130 -20 115 -24 125 -40 125
-13 0 -25 -21 -25 -45 0 -8 -5 -26 -11 -42 -9 -25 -12 -26 -20 -11 -10 18 -18
98 -45 476 -8 123 -18 230 -21 238 -15 39 -23 -13 -23 -149 0 -201 -17 -477
-31 -513 -6 -16 -11 -44 -11 -62 0 -20 -10 -44 -25 -63 -14 -17 -41 -58 -59
-92 l-33 -62 -25 55 c-14 30 -38 100 -54 155 -27 96 -29 100 -57 100 -51 1
-63 65 -96 534 -21 301 -35 399 -54 393 -16 -4 -22 -41 -40 -215 -40 -399 -88
-739 -119 -837 -30 -95 -36 -145 -36 -300 0 -194 -11 -209 -45 -64 -8 36 -26
89 -40 118 -20 43 -25 68 -25 134 0 81 0 82 -25 82 -17 0 -28 -7 -34 -23 -5
-13 -46 -61 -90 -106 -75 -77 -84 -83 -114 -78 -17 3 -61 0 -97 -5 -56 -10
-78 -8 -161 11 -55 13 -103 29 -112 39 -8 9 -22 40 -32 67 -10 28 -23 56 -28
63 -11 14 -43 16 -51 3 -7 -11 -34 -288 -41 -431 -6 -119 -42 -459 -50 -482
-3 -7 -14 -66 -24 -131 -20 -118 -60 -261 -85 -306 -12 -21 -14 -16 -20 60
-16 193 -25 581 -14 599 9 14 7 49 -11 152 -12 73 -29 177 -36 231 -21 158
-31 149 -57 -50 -25 -190 -38 -383 -43 -603 -5 -278 -16 -494 -24 -503 -7 -7
-37 116 -127 508 -62 273 -135 733 -153 964 -6 68 -14 128 -20 134 -21 21 -56
-194 -48 -302 4 -57 -19 -438 -38 -626 -4 -33 -26 -142 -50 -241 -48 -196 -71
-254 -195 -479 l-72 -130 11 -205 c6 -113 19 -337 27 -498 11 -198 13 -297 6
-304 -26 -26 -164 264 -183 385 -6 34 -28 130 -50 213 -21 83 -46 204 -55 270
-8 65 -24 173 -34 239 -11 66 -29 235 -40 375 -12 140 -23 256 -26 259 -15 16
-28 -38 -50 -220 -13 -112 -29 -285 -34 -384 -20 -340 -60 -594 -113 -708 -14
-29 -28 -63 -32 -77 -15 -48 -120 -233 -157 -275 -21 -23 -51 -48 -68 -55 -26
-11 -30 -18 -30 -49 0 -26 -10 -48 -35 -80 l-35 -44 0 -501 -1 -501 -29 56
c-15 30 -44 100 -63 156 -74 210 -149 373 -173 373 -8 0 -21 -15 -30 -32 l-18
-33 -44 95 c-37 78 -46 109 -51 174 -4 48 -11 81 -18 83 -7 3 -21 -14 -32 -35
-30 -60 -47 -73 -76 -62 -14 5 -38 7 -55 4 -27 -6 -30 -4 -30 19 0 13 -9 35
-20 48 -19 22 -21 23 -34 7 -7 -10 -16 -54 -19 -98 -6 -72 -32 -168 -74 -267
l-14 -35 -314 4 c-234 2 -317 6 -327 16 -16 16 -53 15 -67 -2 -7 -8 -11 -29
-9 -48 1 -24 -14 -66 -52 -143 -49 -101 -68 -147 -120 -290 -31 -86 -114 -256
-173 -354 -31 -52 -61 -110 -67 -130 -5 -20 -10 -100 -10 -179 0 -102 -3 -143
-11 -140 -6 2 -27 46 -45 98 -36 100 -62 145 -85 145 -16 0 -29 -26 -65 -128
-27 -79 -78 -167 -101 -175 -24 -7 -53 65 -93 234 -23 95 -48 180 -56 190 -14
19 -14 19 -28 0 -8 -10 -22 -49 -30 -87 -20 -87 -73 -247 -92 -277 -8 -13 -26
-28 -39 -34 -32 -15 -38 -38 -30 -114 l7 -64 6641 0 c3653 0 6902 3 7219 7
l578 6 -6 111 c-3 65 1 200 10 325 15 209 15 215 -4 257 -26 56 -25 68 6 93
l26 21 -35 40 c-20 22 -50 67 -67 101 -48 93 -69 109 -149 109 -36 -1 -84 -7
-106 -15 -22 -8 -70 -15 -106 -15 l-66 0 -6 61 c-3 33 -3 121 0 195 6 123 4
137 -13 162 -59 80 -97 269 -114 552 -6 102 -15 215 -20 252 -6 37 -10 149
-10 251 0 142 -3 187 -14 203 -8 10 -18 16 -22 11 -4 -4 -11 -96 -16 -205 -19
-470 -28 -616 -49 -765 -19 -130 -26 -157 -38 -155 -17 3 -20 21 -40 238 -14
137 -40 360 -47 393 -3 16 -9 78 -13 138 -7 100 -20 144 -37 126 -4 -4 -10
-105 -15 -226 -12 -330 -32 -530 -64 -638 -15 -49 -37 -83 -54 -83 -4 0 -13
62 -19 138 -12 143 -38 353 -48 384 -7 23 -20 23 -29 1 -4 -10 -13 -74 -21
-142 -21 -196 -36 -281 -45 -275 -5 3 -9 22 -9 42 0 22 -10 50 -25 72 -33 48
-62 239 -75 489 -11 215 -17 263 -35 288 -12 17 -14 16 -24 -7 -15 -36 -51
-307 -51 -388 0 -128 -54 -374 -85 -386 -30 -11 -66 98 -106 319 -5 28 -14
181 -19 340 -9 274 -18 356 -40 370 -25 15 -43 -110 -65 -455 -8 -129 -20
-264 -26 -300 -20 -128 -41 -235 -58 -290 l-17 -55 -217 -6 c-268 -7 -260 -3
-257 -129 2 -47 2 -98 1 -115 -1 -26 -3 -28 -16 -14 -12 12 -19 65 -31 225
-23 311 -26 276 25 289 55 13 64 35 58 132 -6 108 -5 107 -172 100 -124 -6
-310 -28 -357 -43 -26 -8 -31 -31 -33 -154 -1 -63 -7 -126 -12 -140 -6 -15
-14 -57 -17 -95 -10 -106 -16 -135 -27 -135 -7 0 -8 50 -5 143 3 78 9 367 14
643 7 373 12 506 22 525 7 13 28 39 46 57 18 18 44 51 58 75 23 39 26 58 37
268 7 124 9 234 6 243 -4 9 -15 16 -26 16 -14 0 -21 10 -26 37 -10 57 -54 133
-76 133 -15 0 -59 -89 -59 -120 0 -23 -6 -33 -24 -40 -41 -15 -49 -59 -54
-287 -3 -174 -6 -214 -19 -225 -26 -21 -42 14 -37 80 19 279 24 426 16 434 -7
7 -39 6 -94 -2 -69 -9 -95 -9 -155 4 -70 14 -74 17 -140 87 -37 39 -74 80 -81
91 -21 30 -31 266 -37 923 -7 651 -26 1005 -55 1005 -13 0 -18 -26 -25 -120
-10 -143 -35 -679 -45 -968 -21 -573 -54 -778 -146 -900 -15 -19 -30 -49 -33
-66 -6 -25 -12 -31 -36 -34 -64 -5 -106 -23 -115 -48 -6 -14 -10 -139 -10
-279 0 -252 -4 -285 -33 -256 -8 8 -13 90 -15 264 -3 225 -5 256 -23 293 -10
22 -19 50 -19 61 0 22 -50 83 -68 83 -16 0 -21 -12 -32 -72 -7 -37 -18 -60
-37 -76 -29 -27 -28 -17 -40 -267 -6 -118 -11 -160 -20 -159 -7 1 -20 2 -28 3
-10 1 -15 12 -15 37 0 30 -4 37 -29 45 -27 10 -75 65 -125 143 -37 59 -106
199 -106 217 0 10 -4 21 -10 24 -16 10 -59 159 -79 282 -22 128 -36 276 -46
478 -4 72 -11 151 -16 177 -4 26 -16 120 -24 209 -17 163 -26 209 -45 209 -14
0 -15 -10 -44 -330 -15 -157 -35 -337 -46 -400 -11 -63 -20 -133 -20 -155 0
-22 -23 -134 -50 -249 -28 -115 -50 -221 -51 -235 -1 -29 -37 -115 -38 -91 -9
145 -23 241 -39 275 -43 89 -53 138 -62 315 -16 301 -30 760 -36 1165 -3 215
-7 401 -10 414 -5 22 -6 23 -21 8 -14 -14 -18 -64 -25 -354 -11 -408 -53
-1132 -72 -1240 -8 -43 -22 -125 -31 -183 -9 -58 -26 -125 -38 -150 -12 -25
-27 -58 -33 -73 -10 -27 -12 -24 -35 60 -23 84 -24 102 -24 373 0 157 6 409
12 560 9 195 10 311 2 400 -5 69 -12 240 -16 382 -5 218 -3 269 12 342 13 69
15 118 11 246 l-6 160 -64 158 c-59 143 -138 373 -165 478 -26 98 -75 42 -101
-114 -7 -41 -15 -70 -20 -65 -4 4 -17 33 -29 63 -38 97 -50 239 -61 700 -14
592 -26 870 -39 883 -26 26 -33 -55 -41 -508 -10 -500 -12 -550 -40 -855 -20
-214 -51 -396 -100 -588 -40 -153 -40 -153 -79 -100 -74 99 -121 231 -152 423
-4 28 -22 130 -38 228 -17 98 -31 195 -31 215 0 20 -7 66 -15 102 -19 87 -32
180 -45 330 -6 69 -27 238 -45 375 -81 588 -95 707 -104 840 -6 77 -13 148
-17 158 -8 22 -31 22 -43 -1z"/>
</g>
</svg>
